# xmcd
#
# Track frame offsets: 
#        182
#        18965
#        34732
#        47557
#        62212
#        79660
#        97162
#        111422
#        127640
#        141207
#
# Disc length: 2111 seconds
#
# Revision: 1
# Processed by: cddbd v1.5.2PL0 Copyright (c) Steve Scherf et al.
# Submitted via: ExactAudioCopy v0.99pb3
#
DISCID=80083d0a
DTITLE=The Four Brothers - Together Again!
DYEAR=1957
DGENRE=Jazz
TTITLE0=Four And One Moore
TTITLE1=So Blue
TTITLE2=The Swinging Door
TTITLE3=Four In Hand
TTITLE4=A Quick One
TTITLE5=Four Brothers
TTITLE6=Ten Years Later
TTITLE7=The Pretty One
TTITLE8=Aged In Wood
TTITLE9=Here We Go Again
EXTD=
EXTT0=
EXTT1=
EXTT2=
EXTT3=
EXTT4=
EXTT5=
EXTT6=
EXTT7=
EXTT8=
EXTT9=
PLAYORDER=
